<?xml version="1.0" encoding="UTF-8" standalone="no"?>
<svg xmlns="http://www.w3.org/2000/svg"
     xmlns:svg="http://www.w3.org/2000/svg"
     version="1.1"
     viewBox="0 0 640 480">
  <rect width="100%" height="100%" fill="#ff6a92" />
  <path id="Selection"
        fill="black" stroke="black" stroke-width="1"
        d="M 126.00,169.00
           C 126.00,169.00 157.00,169.00 157.00,169.00
             157.00,169.00 172.58,211.00 172.58,211.00
             172.58,211.00 198.00,278.00 198.00,278.00
             198.00,278.00 205.99,297.73 205.99,297.73
             205.99,297.73 215.98,303.56 215.98,303.56
             215.98,303.56 217.00,310.00 217.00,310.00
             217.00,310.00 155.00,310.00 155.00,310.00
             155.02,308.15 154.84,305.11 156.02,303.59
             157.69,301.45 168.08,300.24 171.00,300.00
             171.00,300.00 161.58,274.00 161.58,274.00
             161.58,274.00 156.58,264.02 156.58,264.02
             156.58,264.02 149.00,263.00 149.00,263.00
             149.00,263.00 112.00,263.00 112.00,263.00
             112.00,263.00 103.70,264.60 103.70,264.60
             103.70,264.60 99.33,275.00 99.33,275.00
             99.33,275.00 91.00,300.00 91.00,300.00
             94.07,300.25 105.26,301.38 106.98,303.59
             108.16,305.11 107.98,308.15 108.00,310.00
             108.00,310.00 66.00,310.00 66.00,310.00
             66.00,310.00 67.02,303.56 67.02,303.56
             67.02,303.56 76.93,297.73 76.93,297.73
             76.93,297.73 84.19,280.00 84.19,280.00
             84.19,280.00 113.05,204.00 113.05,204.00
             113.05,204.00 126.00,169.00 126.00,169.00 Z
           M 231.00,267.00
           C 233.04,267.01 236.76,266.76 238.42,268.02
             240.16,269.35 240.58,272.94 241.00,275.00
             241.92,279.53 242.78,286.28 245.51,289.96
             251.14,297.56 265.86,301.61 275.00,301.96
             289.23,302.51 304.70,295.98 305.91,280.00
             306.19,276.26 305.80,272.31 303.91,269.00
             299.31,260.91 289.37,256.67 281.00,253.69
             267.86,249.01 249.62,243.97 240.47,232.99
             232.25,223.11 231.86,215.12 232.00,203.00
             232.17,189.19 239.19,178.86 252.00,173.23
             270.97,165.47 299.24,169.28 319.00,173.23
             319.00,173.23 319.00,206.00 319.00,206.00
             319.00,206.00 310.00,206.00 310.00,206.00
             309.45,202.13 307.13,191.07 305.15,188.09
             300.99,181.83 289.11,179.08 282.00,179.00
             268.78,178.85 251.39,184.17 254.22,201.00
             255.77,210.22 266.21,215.17 274.00,218.19
             289.49,224.19 309.82,228.24 320.47,242.00
             332.25,257.21 331.17,284.96 317.82,298.91
             314.11,302.78 308.04,306.10 303.00,307.91
             285.90,314.04 262.55,312.08 245.00,308.55
             245.00,308.55 231.00,305.00 231.00,305.00
             231.00,305.00 231.00,267.00 231.00,267.00 Z
           M 483.00,169.00
           C 483.00,169.00 514.00,169.00 514.00,169.00
             514.00,169.00 529.58,211.00 529.58,211.00
             529.58,211.00 555.00,278.00 555.00,278.00
             555.00,278.00 562.99,297.73 562.99,297.73
             562.99,297.73 572.98,303.56 572.98,303.56
             572.98,303.56 574.00,310.00 574.00,310.00
             574.00,310.00 512.00,310.00 512.00,310.00
             512.02,308.15 511.84,305.11 513.02,303.59
             514.69,301.45 525.08,300.24 528.00,300.00
             528.00,300.00 518.58,274.00 518.58,274.00
             518.58,274.00 513.58,264.02 513.58,264.02
             513.58,264.02 506.00,263.00 506.00,263.00
             506.00,263.00 469.00,263.00 469.00,263.00
             469.00,263.00 460.70,264.60 460.70,264.60
             460.70,264.60 456.33,275.00 456.33,275.00
             456.33,275.00 448.00,300.00 448.00,300.00
             451.07,300.25 462.26,301.38 463.98,303.59
             465.16,305.11 464.98,308.15 465.00,310.00
             465.00,310.00 423.00,310.00 423.00,310.00
             423.00,310.00 424.02,303.56 424.02,303.56
             424.02,303.56 433.93,297.73 433.93,297.73
             433.93,297.73 441.19,280.00 441.19,280.00
             441.19,280.00 470.05,204.00 470.05,204.00
             470.05,204.00 483.00,169.00 483.00,169.00 Z
           M 346.00,170.00
           C 346.00,170.00 414.00,170.00 414.00,170.00
             413.98,171.80 414.18,174.80 413.01,176.26
             411.21,178.50 399.27,179.57 396.00,180.00
             396.00,180.00 396.00,300.00 396.00,300.00
             399.21,300.26 411.20,301.31 412.98,303.59
             414.16,305.11 413.98,308.15 414.00,310.00
             414.00,310.00 346.00,310.00 346.00,310.00
             346.00,310.00 346.00,302.00 346.00,302.00
             350.06,301.91 360.66,301.29 362.98,297.70
             364.21,295.79 364.00,292.24 364.00,290.00
             364.00,290.00 364.00,190.00 364.00,190.00
             363.99,187.31 364.32,183.64 362.40,181.51
             358.98,177.72 349.34,179.35 347.02,176.40
             345.84,174.90 346.02,171.84 346.00,170.00 Z
           M 131.00,190.00
           C 131.00,190.00 119.95,218.00 119.95,218.00
             119.95,218.00 108.00,252.00 108.00,252.00
             108.00,252.00 154.00,252.00 154.00,252.00
             154.00,252.00 138.42,209.00 138.42,209.00
             138.42,209.00 131.00,190.00 131.00,190.00 Z
           M 488.00,190.00
           C 488.00,190.00 476.95,218.00 476.95,218.00
             476.95,218.00 465.00,252.00 465.00,252.00
             465.00,252.00 511.00,252.00 511.00,252.00
             511.00,252.00 495.42,209.00 495.42,209.00
             495.42,209.00 488.00,190.00 488.00,190.00 Z" />
</svg>
