<?xml version="1.0" encoding="UTF-8" standalone="no"?>
<svg xmlns="http://www.w3.org/2000/svg"
     xmlns:svg="http://www.w3.org/2000/svg"
     version="1.1"
     viewBox="0 0 640 480">
  <rect width="100%" height="100%" fill="#e1faff" />
  <path id="Selection"
        fill="black" stroke="black" stroke-width="1"
        d="M 428.00,320.00
           C 432.47,320.00 451.09,319.53 454.00,320.60
             456.93,321.68 459.81,324.79 462.00,327.00
             463.72,328.75 466.70,331.53 467.18,334.00
             467.86,337.57 462.16,344.22 459.99,347.00
             451.88,357.39 442.28,367.73 432.00,376.00
             398.60,402.87 358.81,416.50 316.00,416.00
             316.00,416.00 306.00,415.09 306.00,415.09
             287.59,413.80 270.13,409.71 253.00,402.80
             234.28,395.25 213.42,382.06 199.00,367.99
             143.43,313.76 128.98,234.36 161.31,164.00
             168.65,148.02 180.40,132.00 192.17,119.00
             204.06,105.86 221.49,93.47 237.00,84.86
             294.24,53.11 371.68,58.72 424.00,97.89
             435.80,106.73 446.54,116.62 455.92,128.00
             458.07,130.61 464.92,139.34 466.14,142.00
             468.06,146.17 465.76,148.07 462.98,151.00
             456.40,157.92 455.46,159.98 446.00,160.00
             446.00,160.00 428.00,160.00 428.00,160.00
             434.61,179.84 435.40,185.97 439.00,206.00
             439.00,206.00 428.00,206.00 428.00,206.00
             426.51,194.79 423.96,183.82 420.72,173.00
             419.69,169.58 418.46,163.11 415.58,160.93
             412.98,158.97 408.14,159.02 405.00,159.00
             405.00,159.00 364.00,159.00 364.00,159.00
             364.00,159.00 366.83,181.00 366.83,181.00
             366.83,181.00 369.00,206.00 369.00,206.00
             369.00,206.00 358.00,206.00 358.00,206.00
             358.00,206.00 355.05,173.00 355.05,173.00
             355.05,173.00 352.40,160.60 352.40,160.60
             352.40,160.60 344.00,159.00 344.00,159.00
             344.00,159.00 330.00,159.00 330.00,159.00
             330.00,159.00 314.00,158.00 314.00,158.00
             314.00,158.00 287.00,158.00 287.00,158.00
             287.00,158.00 283.04,192.00 283.04,192.00
             283.04,192.00 283.04,202.00 283.04,202.00
             283.04,202.00 282.00,212.00 282.00,212.00
             282.00,212.00 282.00,233.00 282.00,233.00
             282.00,233.00 306.00,233.00 306.00,233.00
             306.00,233.00 306.00,243.00 306.00,243.00
             306.00,243.00 282.00,243.00 282.00,243.00
             282.00,243.00 283.09,287.00 283.09,287.00
             283.09,287.00 287.00,322.00 287.00,322.00
             287.00,322.00 344.00,322.00 344.00,322.00
             344.00,322.00 352.40,320.40 352.40,320.40
             352.40,320.40 355.05,307.00 355.05,307.00
             355.05,307.00 358.00,273.00 358.00,273.00
             358.00,273.00 369.00,273.00 369.00,273.00
             369.00,273.00 364.00,321.00 364.00,321.00
             364.00,321.00 407.00,321.00 407.00,321.00
             409.80,320.99 413.31,321.31 415.58,319.40
             418.11,317.28 419.92,310.27 420.86,307.00
             423.94,296.26 427.10,284.12 428.00,273.00
             428.00,273.00 439.00,273.00 439.00,273.00
             436.98,288.32 433.57,305.60 428.00,320.00 Z
           M 352.00,148.00
           C 352.00,148.00 348.58,131.00 348.58,131.00
             346.05,119.53 342.00,104.65 337.27,94.00
             334.50,87.76 329.77,78.23 323.00,75.74
             314.81,72.73 308.33,82.91 305.27,89.00
             298.44,102.61 290.23,131.84 289.00,147.04
             289.00,147.04 305.00,147.04 305.00,147.04
             305.00,147.04 317.00,148.00 317.00,148.00
             317.00,148.00 352.00,148.00 352.00,148.00 Z
           M 300.00,78.00
           C 276.11,83.45 257.21,101.67 243.43,121.00
             238.86,127.40 231.43,139.40 230.00,147.00
             230.00,147.00 278.00,147.00 278.00,147.00
             281.63,127.06 285.74,107.52 294.31,89.00
             294.31,89.00 300.00,78.00 300.00,78.00 Z
           M 342.00,78.00
           C 341.41,82.40 348.62,94.81 350.58,100.00
             354.37,110.09 361.52,137.60 362.00,148.00
             362.00,148.00 383.00,149.00 383.00,149.00
             383.00,149.00 412.00,149.00 412.00,149.00
             403.17,125.38 382.67,99.37 361.00,86.45
             354.14,82.36 349.21,80.80 342.00,78.00 Z
           M 381.00,86.00
           C 381.05,89.44 384.64,91.69 387.00,94.01
             391.77,98.71 396.36,103.73 400.49,109.00
             407.48,117.92 412.74,126.97 417.89,137.00
             421.53,144.08 421.31,148.83 430.00,149.00
             430.00,149.00 457.00,149.00 457.00,149.00
             454.31,141.98 448.44,135.68 443.57,130.00
             432.35,116.90 415.21,103.55 400.00,95.31
             400.00,95.31 381.00,86.00 381.00,86.00 Z
           M 260.00,87.00
           C 251.84,88.48 243.09,93.56 236.00,97.80
             218.47,108.30 194.39,127.76 185.00,146.00
             185.00,146.00 210.00,146.00 210.00,146.00
             211.74,146.00 215.08,146.14 216.61,145.43
             219.44,144.11 224.14,133.25 226.00,130.00
             233.07,117.63 238.86,109.71 248.28,99.00
             248.28,99.00 260.00,87.00 260.00,87.00 Z
           M 457.00,209.00
           C 452.49,202.70 440.38,193.43 439.23,187.00
             437.57,177.80 443.13,173.87 449.00,168.00
             449.00,168.00 465.00,152.04 465.00,152.04
             469.04,148.24 473.13,145.24 479.00,146.23
             484.21,147.11 489.33,153.33 493.00,157.00
             493.00,157.00 520.00,184.00 520.00,184.00
             520.00,184.00 558.00,222.00 558.00,222.00
             563.50,227.50 570.69,232.40 569.89,241.00
             569.16,248.87 557.55,258.45 552.00,264.00
             552.00,264.00 500.00,316.00 500.00,316.00
             493.50,322.50 484.99,333.86 475.00,332.89
             469.35,332.34 465.79,327.78 462.00,324.00
             457.86,319.87 442.12,304.90 440.17,301.00
             438.91,298.48 438.79,294.74 439.34,292.00
             440.74,285.13 452.17,276.74 457.00,270.00
             457.00,270.00 344.00,270.00 344.00,270.00
             338.96,270.00 320.57,270.48 317.00,269.35
             314.10,268.43 311.89,266.66 310.45,263.96
             308.81,260.87 309.01,257.39 309.00,254.00
             309.00,254.00 309.00,224.00 309.00,224.00
             309.02,220.05 308.95,216.56 311.65,213.33
             315.35,208.91 319.78,209.01 325.00,209.00
             325.00,209.00 457.00,209.00 457.00,209.00 Z
           M 213.00,157.00
           C 213.00,157.00 185.00,157.00 185.00,157.00
             183.20,157.00 179.93,156.86 178.33,157.57
             174.53,159.25 170.27,170.06 168.58,174.00
             161.46,190.65 155.83,212.89 155.00,231.00
             155.00,231.00 179.00,231.00 179.00,231.00
             179.00,231.00 199.00,232.00 199.00,232.00
             199.34,216.25 202.64,195.34 206.47,180.00
             206.47,180.00 213.00,157.00 213.00,157.00 Z
           M 276.00,158.00
           C 276.00,158.00 233.00,157.00 233.00,157.00
             230.79,157.00 227.29,156.78 225.42,158.02
             222.37,160.05 219.66,171.22 218.58,175.00
             213.46,192.94 210.00,213.35 210.00,231.96
             210.00,231.96 259.00,231.96 259.00,231.96
             261.15,232.01 268.05,232.81 269.40,231.96
             271.64,230.36 270.97,223.56 271.00,221.00
             271.00,221.00 272.00,207.00 272.00,207.00
             272.00,207.00 274.17,175.00 274.17,175.00
             274.17,175.00 276.00,158.00 276.00,158.00 Z
           M 552.00,239.00
           C 552.00,239.00 498.00,185.00 498.00,185.00
             498.00,185.00 484.00,171.00 484.00,171.00
             482.28,169.32 479.50,166.27 477.00,166.03
             474.67,165.81 472.62,167.68 471.00,169.11
             467.59,172.11 456.46,181.22 458.74,186.00
             459.64,187.87 464.32,192.32 466.00,194.00
             466.00,194.00 484.48,213.00 484.48,213.00
             487.70,217.80 485.41,223.04 479.98,224.89
             478.18,225.08 474.95,225.00 473.00,224.89
             473.00,224.89 360.00,224.89 360.00,224.89
             360.00,224.89 334.00,224.89 334.00,224.89
             331.92,225.01 328.26,224.84 326.57,226.17
             324.59,227.74 325.00,231.70 325.00,234.00
             325.00,234.00 325.00,247.00 325.00,247.00
             325.14,254.49 327.26,253.99 334.00,254.14
             334.00,254.14 473.00,254.14 473.00,254.14
             474.92,254.00 478.19,253.92 479.96,254.14
             486.88,256.42 487.24,262.82 483.44,268.00
             483.44,268.00 457.00,296.00 457.00,296.00
             457.00,296.00 471.00,309.94 471.00,309.94
             473.00,311.76 475.08,313.84 478.00,312.83
             480.09,312.11 483.37,308.62 485.00,307.00
             485.00,307.00 499.00,293.00 499.00,293.00
             499.00,293.00 533.00,259.00 533.00,259.00
             538.55,253.45 547.70,245.01 552.00,239.00 Z
           M 199.00,242.00
           C 199.00,242.00 155.00,242.00 155.00,242.00
             155.00,263.15 159.81,285.58 168.15,305.00
             170.08,309.50 174.69,321.60 179.10,323.40
             180.86,324.12 184.06,324.00 186.00,324.00
             186.00,324.00 213.00,323.00 213.00,323.00
             213.00,323.00 204.89,294.00 204.89,294.00
             201.62,279.82 199.00,256.54 199.00,242.00 Z
           M 271.00,243.00
           C 271.00,243.00 228.00,243.00 228.00,243.00
             228.00,243.00 210.00,242.00 210.00,242.00
             210.00,242.00 210.00,253.00 210.00,253.00
             210.02,266.07 214.63,291.14 218.15,304.00
             219.17,307.74 222.51,320.05 225.42,321.98
             227.29,323.22 230.79,323.00 233.00,323.00
             233.00,323.00 258.00,323.00 258.00,323.00
             258.00,323.00 276.00,322.00 276.00,322.00
             276.00,322.00 274.28,306.00 274.28,306.00
             274.28,306.00 272.00,277.00 272.00,277.00
             272.00,277.00 271.00,259.00 271.00,259.00
             271.00,259.00 271.00,243.00 271.00,243.00 Z
           M 412.00,332.00
           C 412.00,332.00 393.00,332.00 393.00,332.00
             393.00,332.00 362.00,332.00 362.00,332.00
             361.46,343.81 354.24,370.69 349.80,382.00
             349.80,382.00 341.00,402.00 341.00,402.00
             350.07,400.36 361.63,393.85 369.00,388.37
             387.85,374.37 402.74,353.49 412.00,332.00 Z
           M 458.00,331.00
           C 458.00,331.00 432.00,331.00 432.00,331.00
             429.73,331.00 426.34,330.78 424.39,332.02
             421.88,333.63 417.92,343.61 416.00,347.00
             410.02,357.55 404.44,366.66 396.56,376.00
             396.56,376.00 381.00,393.00 381.00,393.00
             388.62,391.57 398.23,385.95 405.00,381.99
             424.14,370.78 446.93,350.25 458.00,331.00 Z
           M 352.00,332.00
           C 352.00,332.00 289.00,333.00 289.00,333.00
             289.68,347.66 298.49,377.91 305.26,391.00
             308.73,397.72 315.01,407.67 323.99,403.99
             330.27,401.42 335.56,391.10 337.94,385.00
             344.98,366.95 348.22,350.81 352.00,332.00 Z
           M 278.00,333.00
           C 278.00,333.00 230.00,334.00 230.00,334.00
             232.06,341.21 237.22,349.70 241.34,356.00
             253.61,374.75 276.86,398.42 300.00,402.00
             300.00,402.00 292.86,388.00 292.86,388.00
             285.16,370.57 281.40,351.64 278.00,333.00 Z
           M 261.00,393.00
           C 247.54,382.81 235.52,366.54 227.01,352.00
             225.15,348.82 219.42,336.43 217.37,334.99
             215.58,333.75 212.13,334.00 210.00,334.00
             210.00,334.00 185.00,334.00 185.00,334.00
             187.56,340.02 192.20,345.07 196.43,350.00
             207.61,363.06 223.97,375.75 239.00,384.14
             243.83,386.83 255.88,393.91 261.00,393.00 Z
           M 381.00,393.00
           C 381.00,393.00 380.00,393.00 380.00,393.00
             380.00,393.00 381.00,394.00 381.00,394.00
             381.00,394.00 381.00,393.00 381.00,393.00 Z" />
</svg>
